<svg width="172" height="42" viewBox="0 0 172 42" fill="none" xmlns="http://www.w3.org/2000/svg">
<path d="M34.76 12.36H36.44V18.66L42.16 12.36H44.26L39.02 18.08L45.06 26H42.96L37.86 19.32L36.44 20.88V26H34.76V12.36ZM48.3541 24.46H51.0541C51.7874 24.46 52.4741 24.3667 53.1141 24.18C53.7674 23.9933 54.3341 23.6933 54.8141 23.28C55.3074 22.8533 55.6941 22.3 55.9741 21.62C56.2541 20.94 56.3941 20.1133 56.3941 19.14C56.3941 18.2333 56.2674 17.4533 56.0141 16.8C55.7607 16.1333 55.4007 15.5867 54.9341 15.16C54.4807 14.7333 53.9207 14.42 53.2541 14.22C52.6007 14.0067 51.8674 13.9 51.0541 13.9H48.3541V24.46ZM46.6741 12.36H51.0541C52.1341 12.36 53.1074 12.4933 53.9741 12.76C54.8541 13.0267 55.6074 13.44 56.2341 14C56.8607 14.56 57.3407 15.2667 57.6741 16.12C58.0207 16.9733 58.1941 17.98 58.1941 19.14C58.1941 20.3133 58.0074 21.3333 57.6341 22.2C57.2607 23.0533 56.7541 23.7667 56.1141 24.34C55.4741 24.9 54.7207 25.32 53.8541 25.6C52.9874 25.8667 52.0541 26 51.0541 26H46.6741V12.36ZM61.3509 12.36H63.4909L66.5709 20.48C66.7443 20.9467 66.9043 21.38 67.0509 21.78C67.1976 22.1667 67.3243 22.5133 67.4309 22.82C67.5643 23.1667 67.6776 23.4867 67.7709 23.78H67.8109C67.8909 23.4867 67.9909 23.1667 68.1109 22.82C68.2176 22.5133 68.3376 22.1667 68.4709 21.78C68.6043 21.38 68.7643 20.9467 68.9509 20.48L72.0909 12.36H74.2309L74.9309 26H73.2309L72.8909 18.5C72.8643 17.8467 72.8443 17.2933 72.8309 16.84C72.8176 16.3867 72.8109 16.0133 72.8109 15.72V14.88H72.7709C72.6909 15.08 72.5909 15.3533 72.4709 15.7C72.3643 15.9933 72.2243 16.3733 72.0509 16.84C71.8909 17.2933 71.6909 17.8467 71.4509 18.5L68.6309 26H66.9309L64.0909 18.5C63.8376 17.86 63.6309 17.3133 63.4709 16.86C63.3109 16.3933 63.1776 16.0133 63.0709 15.72C62.9509 15.3733 62.8576 15.0933 62.7909 14.88H62.7509C62.7643 15.0933 62.7776 15.3733 62.7909 15.72C62.8043 16.28 62.7843 17.2067 62.7309 18.5L62.3309 26H60.6309L61.3509 12.36ZM78.1389 12.36H79.7389L86.8989 23.18H86.9389C86.9122 22.7933 86.8922 22.38 86.8789 21.94C86.8522 21.5667 86.8322 21.14 86.8189 20.66C86.8189 20.1667 86.8189 19.6667 86.8189 19.16V12.36H88.4189V26H86.8189L79.6589 15.14H79.6189C79.6322 15.54 79.6522 15.96 79.6789 16.4C79.6922 16.7867 79.7056 17.22 79.7189 17.7C79.7322 18.18 79.7389 18.6733 79.7389 19.18V26H78.1389V12.36ZM91.9475 12.36H93.6275V18.66L99.3475 12.36H101.448L96.2075 18.08L102.248 26H100.148L95.0475 19.32L93.6275 20.88V26H91.9475V12.36ZM108.432 12.36H112.072C113.512 12.36 114.552 12.6267 115.192 13.16C115.845 13.6933 116.172 14.5067 116.172 15.6C116.172 16.1067 116.099 16.5467 115.952 16.92C115.819 17.2933 115.665 17.6067 115.492 17.86C115.292 18.1533 115.072 18.4067 114.832 18.62C115.152 18.74 115.452 18.8933 115.732 19.08C116.012 19.2667 116.259 19.4933 116.472 19.76C116.685 20.0267 116.852 20.3467 116.972 20.72C117.105 21.08 117.172 21.5067 117.172 22C117.172 22.5467 117.099 23.0667 116.952 23.56C116.805 24.04 116.559 24.46 116.212 24.82C115.865 25.18 115.405 25.4667 114.832 25.68C114.259 25.8933 113.545 26 112.692 26H108.432V12.36ZM110.112 18.28H113.452C113.639 18.1333 113.805 17.94 113.952 17.7C114.085 17.5 114.205 17.2533 114.312 16.96C114.419 16.6533 114.472 16.2867 114.472 15.86C114.472 15.0733 114.265 14.5467 113.852 14.28C113.452 14 112.885 13.86 112.152 13.86H110.112V18.28ZM110.112 24.5H112.832C113.712 24.5 114.372 24.2733 114.812 23.82C115.252 23.3667 115.472 22.76 115.472 22C115.472 21.6667 115.425 21.36 115.332 21.08C115.252 20.8 115.105 20.56 114.892 20.36C114.679 20.1467 114.392 19.98 114.032 19.86C113.672 19.74 113.225 19.68 112.692 19.68H110.112V24.5ZM119.196 19.18C119.196 17.8867 119.396 16.7933 119.796 15.9C120.209 15.0067 120.729 14.2867 121.356 13.74C121.996 13.1933 122.702 12.8 123.476 12.56C124.262 12.3067 125.029 12.18 125.776 12.18C126.522 12.18 127.282 12.2867 128.056 12.5C128.842 12.7 129.549 13.0667 130.176 13.6C130.816 14.12 131.336 14.8333 131.736 15.74C132.149 16.6467 132.356 17.8 132.356 19.2C132.356 20.5067 132.149 21.6067 131.736 22.5C131.336 23.3933 130.816 24.12 130.176 24.68C129.549 25.24 128.842 25.6467 128.056 25.9C127.282 26.14 126.522 26.26 125.776 26.26C125.029 26.26 124.262 26.14 123.476 25.9C122.702 25.66 121.996 25.2667 121.356 24.72C120.729 24.1733 120.209 23.4467 119.796 22.54C119.396 21.6333 119.196 20.5133 119.196 19.18ZM130.456 19.28C130.456 17.48 130.036 16.1133 129.196 15.18C128.369 14.2467 127.256 13.78 125.856 13.78C125.149 13.78 124.502 13.8933 123.916 14.12C123.342 14.3333 122.842 14.66 122.416 15.1C122.002 15.54 121.676 16.0933 121.436 16.76C121.209 17.4133 121.096 18.1867 121.096 19.08C121.096 20.88 121.509 22.26 122.336 23.22C123.176 24.18 124.296 24.66 125.696 24.66C126.389 24.66 127.029 24.5533 127.616 24.34C128.202 24.1133 128.702 23.7733 129.116 23.32C129.542 22.8667 129.869 22.3067 130.096 21.64C130.336 20.9733 130.456 20.1867 130.456 19.28ZM134.391 19.18C134.391 17.8867 134.591 16.7933 134.991 15.9C135.404 15.0067 135.924 14.2867 136.551 13.74C137.191 13.1933 137.898 12.8 138.671 12.56C139.458 12.3067 140.224 12.18 140.971 12.18C141.718 12.18 142.478 12.2867 143.251 12.5C144.038 12.7 144.744 13.0667 145.371 13.6C146.011 14.12 146.531 14.8333 146.931 15.74C147.344 16.6467 147.551 17.8 147.551 19.2C147.551 20.5067 147.344 21.6067 146.931 22.5C146.531 23.3933 146.011 24.12 145.371 24.68C144.744 25.24 144.038 25.6467 143.251 25.9C142.478 26.14 141.718 26.26 140.971 26.26C140.224 26.26 139.458 26.14 138.671 25.9C137.898 25.66 137.191 25.2667 136.551 24.72C135.924 24.1733 135.404 23.4467 134.991 22.54C134.591 21.6333 134.391 20.5133 134.391 19.18ZM145.651 19.28C145.651 17.48 145.231 16.1133 144.391 15.18C143.564 14.2467 142.451 13.78 141.051 13.78C140.344 13.78 139.698 13.8933 139.111 14.12C138.538 14.3333 138.038 14.66 137.611 15.1C137.198 15.54 136.871 16.0933 136.631 16.76C136.404 17.4133 136.291 18.1867 136.291 19.08C136.291 20.88 136.704 22.26 137.531 23.22C138.371 24.18 139.491 24.66 140.891 24.66C141.584 24.66 142.224 24.5533 142.811 24.34C143.398 24.1133 143.898 23.7733 144.311 23.32C144.738 22.8667 145.064 22.3067 145.291 21.64C145.531 20.9733 145.651 20.1867 145.651 19.28ZM150.326 12.36H152.006V18.66L157.726 12.36H159.826L154.586 18.08L160.626 26H158.526L153.426 19.32L152.006 20.88V26H150.326V12.36ZM169.22 14.24C168.9 14.16 168.567 14.0867 168.22 14.02C167.914 13.9533 167.56 13.9 167.16 13.86C166.774 13.8067 166.367 13.78 165.94 13.78C164.954 13.78 164.247 13.9333 163.82 14.24C163.394 14.5333 163.18 14.9933 163.18 15.62C163.194 16.1133 163.374 16.5333 163.72 16.88C164.067 17.2133 164.5 17.5267 165.02 17.82C165.54 18.1 166.107 18.38 166.72 18.66C167.347 18.9267 167.92 19.24 168.44 19.6C168.96 19.9467 169.394 20.36 169.74 20.84C170.1 21.3067 170.28 21.88 170.28 22.56C170.28 23.3467 170.107 23.98 169.76 24.46C169.427 24.94 169 25.3133 168.48 25.58C167.96 25.8467 167.387 26.0267 166.76 26.12C166.147 26.2133 165.56 26.26 165 26.26C164.467 26.26 163.98 26.2267 163.54 26.16C163.1 26.0933 162.72 26.02 162.4 25.94C162.027 25.8467 161.687 25.74 161.38 25.62L161.78 24C162.087 24.1333 162.414 24.2467 162.76 24.34C163.067 24.42 163.407 24.4933 163.78 24.56C164.167 24.6267 164.574 24.66 165 24.66C165.52 24.66 165.994 24.6267 166.42 24.56C166.86 24.4933 167.24 24.3867 167.56 24.24C167.88 24.0933 168.127 23.9 168.3 23.66C168.487 23.42 168.58 23.1267 168.58 22.78C168.567 22.26 168.394 21.84 168.06 21.52C167.74 21.1867 167.307 20.8733 166.76 20.58C166.227 20.2733 165.647 19.98 165.02 19.7C164.407 19.42 163.84 19.1 163.32 18.74C162.8 18.38 162.36 17.9533 162 17.46C161.654 16.9667 161.48 16.3533 161.48 15.62C161.48 15.1933 161.554 14.7733 161.7 14.36C161.847 13.9467 162.094 13.58 162.44 13.26C162.8 12.94 163.26 12.68 163.82 12.48C164.394 12.28 165.1 12.18 165.94 12.18C166.42 12.18 166.874 12.2067 167.3 12.26C167.74 12.3 168.12 12.3467 168.44 12.4C168.814 12.4667 169.167 12.54 169.5 12.62L169.22 14.24Z" fill="#FFFBFE"/>
<path d="M26.125 7H6.875C6.11561 7 5.5 7.7835 5.5 8.75V33.25C5.5 34.2165 6.11561 35 6.875 35H26.125C26.8844 35 27.5 34.2165 27.5 33.25V8.75C27.5 7.7835 26.8844 7 26.125 7Z" stroke="white" stroke-width="2" stroke-linecap="round" stroke-linejoin="round"/>
<path d="M16.5 19.25H22" stroke="white" stroke-width="2" stroke-linecap="round" stroke-linejoin="round"/>
<path d="M16.5 14H22" stroke="white" stroke-width="2" stroke-linecap="round" stroke-linejoin="round"/>
<path d="M11 35L11 7" stroke="white" stroke-width="2" stroke-linecap="round" stroke-linejoin="round"/>
<line x1="33" y1="30.5" x2="172" y2="30.5" stroke="#FFFBFE"/>
</svg>
